<?xml version="1.0" encoding="UTF-8" standalone="no"?><svg xmlns="http://www.w3.org/2000/svg" xmlns:xlink="http://www.w3.org/1999/xlink" contentScriptType="application/ecmascript" contentStyleType="text/css" height="605px" preserveAspectRatio="none" style="width:787px;height:605px;background:#FFFFFF;" version="1.1" viewBox="0 0 787 605" width="787px" zoomAndPan="magnify"><defs/><g><text fill="#000000" font-family="sans-serif" font-size="18" lengthAdjust="spacing" textLength="404" x="185" y="16.708">Online Clothing Store main classes diagram</text><!--MD5=[2ce0c9fb7f55b1e256ab28a8ea6b25ec]
class Customer--><rect codeLine="6" fill="#FEFECE" height="40" id="Customer" style="stroke:#A80036;stroke-width:1.5;" width="90" x="256" y="27.9531"/><ellipse cx="271" cy="43.9531" fill="#ADD1B2" rx="11" ry="11" style="stroke:#A80036;stroke-width:1.0;"/><path d="M273.3438,39.625 C272.4063,39.1875 271.8125,39.0469 270.9375,39.0469 C268.3125,39.0469 266.3125,41.125 266.3125,43.8438 L266.3125,44.9688 C266.3125,47.5469 268.4219,49.4375 271.3125,49.4375 C272.5313,49.4375 273.6875,49.1406 274.4375,48.5938 C275.0156,48.1875 275.3438,47.7344 275.3438,47.3438 C275.3438,46.8906 274.9531,46.5 274.4844,46.5 C274.2656,46.5 274.0625,46.5781 273.875,46.7656 C273.4219,47.25 273.4219,47.25 273.2344,47.3438 C272.8125,47.6094 272.125,47.7344 271.3594,47.7344 C269.3125,47.7344 268.0156,46.6406 268.0156,44.9375 L268.0156,43.8438 C268.0156,42.0625 269.2656,40.75 271,40.75 C271.5781,40.75 272.1875,40.9063 272.6563,41.1563 C273.1406,41.4375 273.3125,41.6563 273.4063,42.0625 C273.4688,42.4688 273.5,42.5938 273.6406,42.7188 C273.7813,42.8594 274.0156,42.9688 274.2344,42.9688 C274.5,42.9688 274.7656,42.8281 274.9375,42.6094 C275.0469,42.4531 275.0781,42.2656 275.0781,41.8438 L275.0781,40.4219 C275.0781,39.9844 275.0625,39.8594 274.9688,39.7031 C274.8125,39.4375 274.5313,39.2969 274.2344,39.2969 C273.9375,39.2969 273.7344,39.3906 273.5156,39.7031 L273.3438,39.625 Z " fill="#000000"/><text fill="#000000" font-family="sans-serif" font-size="12" lengthAdjust="spacing" textLength="58" x="285" y="48.1074">Customer</text><line style="stroke:#A80036;stroke-width:1.5;" x1="257" x2="345" y1="59.9531" y2="59.9531"/><!--MD5=[72136138052d025cffdce3c22fbd185f]
class Product--><rect codeLine="8" fill="#FEFECE" height="40" id="Product" style="stroke:#A80036;stroke-width:1.5;" width="77" x="144.5" y="506.9531"/><ellipse cx="159.5" cy="522.9531" fill="#ADD1B2" rx="11" ry="11" style="stroke:#A80036;stroke-width:1.0;"/><path d="M161.8438,518.625 C160.9063,518.1875 160.3125,518.0469 159.4375,518.0469 C156.8125,518.0469 154.8125,520.125 154.8125,522.8438 L154.8125,523.9688 C154.8125,526.5469 156.9219,528.4375 159.8125,528.4375 C161.0313,528.4375 162.1875,528.1406 162.9375,527.5938 C163.5156,527.1875 163.8438,526.7344 163.8438,526.3438 C163.8438,525.8906 163.4531,525.5 162.9844,525.5 C162.7656,525.5 162.5625,525.5781 162.375,525.7656 C161.9219,526.25 161.9219,526.25 161.7344,526.3438 C161.3125,526.6094 160.625,526.7344 159.8594,526.7344 C157.8125,526.7344 156.5156,525.6406 156.5156,523.9375 L156.5156,522.8438 C156.5156,521.0625 157.7656,519.75 159.5,519.75 C160.0781,519.75 160.6875,519.9063 161.1563,520.1563 C161.6406,520.4375 161.8125,520.6563 161.9063,521.0625 C161.9688,521.4688 162,521.5938 162.1406,521.7188 C162.2813,521.8594 162.5156,521.9688 162.7344,521.9688 C163,521.9688 163.2656,521.8281 163.4375,521.6094 C163.5469,521.4531 163.5781,521.2656 163.5781,520.8438 L163.5781,519.4219 C163.5781,518.9844 163.5625,518.8594 163.4688,518.7031 C163.3125,518.4375 163.0313,518.2969 162.7344,518.2969 C162.4375,518.2969 162.2344,518.3906 162.0156,518.7031 L161.8438,518.625 Z " fill="#000000"/><text fill="#000000" font-family="sans-serif" font-size="12" lengthAdjust="spacing" textLength="45" x="173.5" y="527.1074">Product</text><line style="stroke:#A80036;stroke-width:1.5;" x1="145.5" x2="220.5" y1="538.9531" y2="538.9531"/><!--MD5=[a608780e30028417ceff2d6f0d878efa]
class Cart--><rect codeLine="11" fill="#FEFECE" height="40" id="Cart" style="stroke:#A80036;stroke-width:1.5;" width="56" x="172" y="172.9531"/><ellipse cx="187" cy="188.9531" fill="#ADD1B2" rx="11" ry="11" style="stroke:#A80036;stroke-width:1.0;"/><path d="M189.3438,184.625 C188.4063,184.1875 187.8125,184.0469 186.9375,184.0469 C184.3125,184.0469 182.3125,186.125 182.3125,188.8438 L182.3125,189.9688 C182.3125,192.5469 184.4219,194.4375 187.3125,194.4375 C188.5313,194.4375 189.6875,194.1406 190.4375,193.5938 C191.0156,193.1875 191.3438,192.7344 191.3438,192.3438 C191.3438,191.8906 190.9531,191.5 190.4844,191.5 C190.2656,191.5 190.0625,191.5781 189.875,191.7656 C189.4219,192.25 189.4219,192.25 189.2344,192.3438 C188.8125,192.6094 188.125,192.7344 187.3594,192.7344 C185.3125,192.7344 184.0156,191.6406 184.0156,189.9375 L184.0156,188.8438 C184.0156,187.0625 185.2656,185.75 187,185.75 C187.5781,185.75 188.1875,185.9063 188.6563,186.1563 C189.1406,186.4375 189.3125,186.6563 189.4063,187.0625 C189.4688,187.4688 189.5,187.5938 189.6406,187.7188 C189.7813,187.8594 190.0156,187.9688 190.2344,187.9688 C190.5,187.9688 190.7656,187.8281 190.9375,187.6094 C191.0469,187.4531 191.0781,187.2656 191.0781,186.8438 L191.0781,185.4219 C191.0781,184.9844 191.0625,184.8594 190.9688,184.7031 C190.8125,184.4375 190.5313,184.2969 190.2344,184.2969 C189.9375,184.2969 189.7344,184.3906 189.5156,184.7031 L189.3438,184.625 Z " fill="#000000"/><text fill="#000000" font-family="sans-serif" font-size="12" lengthAdjust="spacing" textLength="24" x="201" y="193.1074">Cart</text><line style="stroke:#A80036;stroke-width:1.5;" x1="173" x2="227" y1="204.9531" y2="204.9531"/><!--MD5=[9bab5063b42bf90dcca070a1981b0c6a]
class CartItem--><rect codeLine="12" fill="#FEFECE" height="40" id="CartItem" style="stroke:#A80036;stroke-width:1.5;" width="82" x="7" y="336.9531"/><ellipse cx="22" cy="352.9531" fill="#ADD1B2" rx="11" ry="11" style="stroke:#A80036;stroke-width:1.0;"/><path d="M24.3438,348.625 C23.4063,348.1875 22.8125,348.0469 21.9375,348.0469 C19.3125,348.0469 17.3125,350.125 17.3125,352.8438 L17.3125,353.9688 C17.3125,356.5469 19.4219,358.4375 22.3125,358.4375 C23.5313,358.4375 24.6875,358.1406 25.4375,357.5938 C26.0156,357.1875 26.3438,356.7344 26.3438,356.3438 C26.3438,355.8906 25.9531,355.5 25.4844,355.5 C25.2656,355.5 25.0625,355.5781 24.875,355.7656 C24.4219,356.25 24.4219,356.25 24.2344,356.3438 C23.8125,356.6094 23.125,356.7344 22.3594,356.7344 C20.3125,356.7344 19.0156,355.6406 19.0156,353.9375 L19.0156,352.8438 C19.0156,351.0625 20.2656,349.75 22,349.75 C22.5781,349.75 23.1875,349.9063 23.6563,350.1563 C24.1406,350.4375 24.3125,350.6563 24.4063,351.0625 C24.4688,351.4688 24.5,351.5938 24.6406,351.7188 C24.7813,351.8594 25.0156,351.9688 25.2344,351.9688 C25.5,351.9688 25.7656,351.8281 25.9375,351.6094 C26.0469,351.4531 26.0781,351.2656 26.0781,350.8438 L26.0781,349.4219 C26.0781,348.9844 26.0625,348.8594 25.9688,348.7031 C25.8125,348.4375 25.5313,348.2969 25.2344,348.2969 C24.9375,348.2969 24.7344,348.3906 24.5156,348.7031 L24.3438,348.625 Z " fill="#000000"/><text fill="#000000" font-family="sans-serif" font-size="12" lengthAdjust="spacing" textLength="50" x="36" y="357.1074">CartItem</text><line style="stroke:#A80036;stroke-width:1.5;" x1="8" x2="88" y1="368.9531" y2="368.9531"/><!--MD5=[cf4d6237fcae255cd2e1656cf84a30e2]
class Order--><rect codeLine="14" fill="#FEFECE" height="129.6328" id="Order" style="stroke:#A80036;stroke-width:1.5;" width="143" x="330.5" y="127.9531"/><ellipse cx="379.75" cy="143.9531" fill="#ADD1B2" rx="11" ry="11" style="stroke:#A80036;stroke-width:1.0;"/><path d="M382.0938,139.625 C381.1563,139.1875 380.5625,139.0469 379.6875,139.0469 C377.0625,139.0469 375.0625,141.125 375.0625,143.8438 L375.0625,144.9688 C375.0625,147.5469 377.1719,149.4375 380.0625,149.4375 C381.2813,149.4375 382.4375,149.1406 383.1875,148.5938 C383.7656,148.1875 384.0938,147.7344 384.0938,147.3438 C384.0938,146.8906 383.7031,146.5 383.2344,146.5 C383.0156,146.5 382.8125,146.5781 382.625,146.7656 C382.1719,147.25 382.1719,147.25 381.9844,147.3438 C381.5625,147.6094 380.875,147.7344 380.1094,147.7344 C378.0625,147.7344 376.7656,146.6406 376.7656,144.9375 L376.7656,143.8438 C376.7656,142.0625 378.0156,140.75 379.75,140.75 C380.3281,140.75 380.9375,140.9063 381.4063,141.1563 C381.8906,141.4375 382.0625,141.6563 382.1563,142.0625 C382.2188,142.4688 382.25,142.5938 382.3906,142.7188 C382.5313,142.8594 382.7656,142.9688 382.9844,142.9688 C383.25,142.9688 383.5156,142.8281 383.6875,142.6094 C383.7969,142.4531 383.8281,142.2656 383.8281,141.8438 L383.8281,140.4219 C383.8281,139.9844 383.8125,139.8594 383.7188,139.7031 C383.5625,139.4375 383.2813,139.2969 382.9844,139.2969 C382.6875,139.2969 382.4844,139.3906 382.2656,139.7031 L382.0938,139.625 Z " fill="#000000"/><text fill="#000000" font-family="sans-serif" font-size="12" lengthAdjust="spacing" textLength="36" x="400.25" y="148.1074">Order</text><line style="stroke:#A80036;stroke-width:1.5;" x1="331.5" x2="472.5" y1="159.9531" y2="159.9531"/><text fill="#000000" font-family="sans-serif" font-size="11" lengthAdjust="spacing" textLength="44" x="336.5" y="174.1636">number</text><text fill="#000000" font-family="sans-serif" font-size="11" lengthAdjust="spacing" textLength="78" x="336.5" y="186.9683">creation_date</text><text fill="#000000" font-family="sans-serif" font-size="11" lengthAdjust="spacing" textLength="131" x="336.5" y="199.7729">planned_delivery_date</text><text fill="#000000" font-family="sans-serif" font-size="11" lengthAdjust="spacing" textLength="67" x="336.5" y="212.5776">tax_amount</text><text fill="#000000" font-family="sans-serif" font-size="11" lengthAdjust="spacing" textLength="96" x="336.5" y="225.3823">delivery_amount</text><text fill="#000000" font-family="sans-serif" font-size="11" lengthAdjust="spacing" textLength="74" x="336.5" y="238.187">total_amount</text><text fill="#000000" font-family="sans-serif" font-size="11" lengthAdjust="spacing" textLength="113" x="336.5" y="250.9917">customer_comment</text><!--MD5=[c8b7557615b5dbe946e3a909d7cafe57]
class PaymentType--><rect codeLine="23" fill="#FEFECE" height="65.6094" id="PaymentType" style="stroke:#A80036;stroke-width:1.5;" width="112" x="124" y="323.9531"/><ellipse cx="139" cy="339.9531" fill="#EB937F" rx="11" ry="11" style="stroke:#A80036;stroke-width:1.0;"/><path d="M137.7969,340.8281 L139.25,340.8281 L139.25,340.9375 C139.25,341.3438 139.2813,341.5 139.3594,341.6563 C139.5156,341.9063 139.7969,342.0625 140.0938,342.0625 C140.3438,342.0625 140.6094,341.9219 140.7656,341.7031 C140.8906,341.5469 140.9219,341.3906 140.9219,340.9375 L140.9219,339.0156 C140.9219,338.8594 140.9219,338.8125 140.9063,338.6563 C140.8438,338.1875 140.5313,337.875 140.0781,337.875 C139.8281,337.875 139.5625,338.0156 139.3906,338.2344 C139.2813,338.4063 139.25,338.5625 139.25,339.0156 L139.25,339.1406 L137.7969,339.1406 L137.7969,336.7344 L141.7813,336.7344 L141.7813,337.5938 C141.7813,338 141.8125,338.1719 141.8906,338.3281 C142.0625,338.5781 142.3438,338.7344 142.625,338.7344 C142.8906,338.7344 143.1563,338.5938 143.3281,338.375 C143.4375,338.2031 143.4688,338.0625 143.4688,337.5938 L143.4688,335.0469 L135.8438,335.0469 C135.4063,335.0469 135.2813,335.0625 135.125,335.1563 C134.875,335.3125 134.7188,335.6094 134.7188,335.8906 C134.7188,336.1719 134.8594,336.4219 135.0781,336.5938 C135.2344,336.7031 135.4219,336.7344 135.8438,336.7344 L136.0938,336.7344 L136.0938,343.25 L135.8438,343.25 C135.4375,343.25 135.2813,343.2656 135.125,343.375 C134.875,343.5469 134.7188,343.8125 134.7188,344.1094 C134.7188,344.375 134.8594,344.625 135.0781,344.7813 C135.2188,344.9063 135.4531,344.9531 135.8438,344.9531 L143.8438,344.9531 L143.8438,342.375 C143.8438,341.9375 143.8125,341.7969 143.7344,341.6406 C143.5625,341.3906 143.2813,341.2344 143,341.2344 C142.7344,341.2344 142.4688,341.3438 142.2969,341.5938 C142.1875,341.75 142.1563,341.8906 142.1563,342.375 L142.1563,343.25 L137.7969,343.25 L137.7969,340.8281 Z " fill="#000000"/><text fill="#000000" font-family="sans-serif" font-size="12" lengthAdjust="spacing" textLength="80" x="153" y="344.1074">PaymentType</text><line style="stroke:#A80036;stroke-width:1.5;" x1="125" x2="235" y1="355.9531" y2="355.9531"/><text fill="#000000" font-family="sans-serif" font-size="11" lengthAdjust="spacing" textLength="37" x="130" y="370.1636">Online</text><text fill="#000000" font-family="sans-serif" font-size="11" lengthAdjust="spacing" textLength="38" x="130" y="382.9683">Offline</text><!--MD5=[003718b22fee2486eeba0fa029a176b7]
class OrderItem--><rect codeLine="27" fill="#FEFECE" height="78.4141" id="OrderItem" style="stroke:#A80036;stroke-width:1.5;" width="94" x="271" y="317.9531"/><ellipse cx="286" cy="333.9531" fill="#ADD1B2" rx="11" ry="11" style="stroke:#A80036;stroke-width:1.0;"/><path d="M288.3438,329.625 C287.4063,329.1875 286.8125,329.0469 285.9375,329.0469 C283.3125,329.0469 281.3125,331.125 281.3125,333.8438 L281.3125,334.9688 C281.3125,337.5469 283.4219,339.4375 286.3125,339.4375 C287.5313,339.4375 288.6875,339.1406 289.4375,338.5938 C290.0156,338.1875 290.3438,337.7344 290.3438,337.3438 C290.3438,336.8906 289.9531,336.5 289.4844,336.5 C289.2656,336.5 289.0625,336.5781 288.875,336.7656 C288.4219,337.25 288.4219,337.25 288.2344,337.3438 C287.8125,337.6094 287.125,337.7344 286.3594,337.7344 C284.3125,337.7344 283.0156,336.6406 283.0156,334.9375 L283.0156,333.8438 C283.0156,332.0625 284.2656,330.75 286,330.75 C286.5781,330.75 287.1875,330.9063 287.6563,331.1563 C288.1406,331.4375 288.3125,331.6563 288.4063,332.0625 C288.4688,332.4688 288.5,332.5938 288.6406,332.7188 C288.7813,332.8594 289.0156,332.9688 289.2344,332.9688 C289.5,332.9688 289.7656,332.8281 289.9375,332.6094 C290.0469,332.4531 290.0781,332.2656 290.0781,331.8438 L290.0781,330.4219 C290.0781,329.9844 290.0625,329.8594 289.9688,329.7031 C289.8125,329.4375 289.5313,329.2969 289.2344,329.2969 C288.9375,329.2969 288.7344,329.3906 288.5156,329.7031 L288.3438,329.625 Z " fill="#000000"/><text fill="#000000" font-family="sans-serif" font-size="12" lengthAdjust="spacing" textLength="62" x="300" y="338.1074">OrderItem</text><line style="stroke:#A80036;stroke-width:1.5;" x1="272" x2="364" y1="349.9531" y2="349.9531"/><text fill="#000000" font-family="sans-serif" font-size="11" lengthAdjust="spacing" textLength="28" x="277" y="364.1636">price</text><text fill="#000000" font-family="sans-serif" font-size="11" lengthAdjust="spacing" textLength="46" x="277" y="376.9683">quantity</text><text fill="#000000" font-family="sans-serif" font-size="11" lengthAdjust="spacing" textLength="47" x="277" y="389.7729">discount</text><!--MD5=[6e3da976d857cc23089680db8b6e669d]
class OrderStatusHistoryItem--><rect codeLine="32" fill="#FEFECE" height="40" id="OrderStatusHistoryItem" style="stroke:#A80036;stroke-width:1.5;" width="174" x="400" y="336.9531"/><ellipse cx="415" cy="352.9531" fill="#ADD1B2" rx="11" ry="11" style="stroke:#A80036;stroke-width:1.0;"/><path d="M417.3438,348.625 C416.4063,348.1875 415.8125,348.0469 414.9375,348.0469 C412.3125,348.0469 410.3125,350.125 410.3125,352.8438 L410.3125,353.9688 C410.3125,356.5469 412.4219,358.4375 415.3125,358.4375 C416.5313,358.4375 417.6875,358.1406 418.4375,357.5938 C419.0156,357.1875 419.3438,356.7344 419.3438,356.3438 C419.3438,355.8906 418.9531,355.5 418.4844,355.5 C418.2656,355.5 418.0625,355.5781 417.875,355.7656 C417.4219,356.25 417.4219,356.25 417.2344,356.3438 C416.8125,356.6094 416.125,356.7344 415.3594,356.7344 C413.3125,356.7344 412.0156,355.6406 412.0156,353.9375 L412.0156,352.8438 C412.0156,351.0625 413.2656,349.75 415,349.75 C415.5781,349.75 416.1875,349.9063 416.6563,350.1563 C417.1406,350.4375 417.3125,350.6563 417.4063,351.0625 C417.4688,351.4688 417.5,351.5938 417.6406,351.7188 C417.7813,351.8594 418.0156,351.9688 418.2344,351.9688 C418.5,351.9688 418.7656,351.8281 418.9375,351.6094 C419.0469,351.4531 419.0781,351.2656 419.0781,350.8438 L419.0781,349.4219 C419.0781,348.9844 419.0625,348.8594 418.9688,348.7031 C418.8125,348.4375 418.5313,348.2969 418.2344,348.2969 C417.9375,348.2969 417.7344,348.3906 417.5156,348.7031 L417.3438,348.625 Z " fill="#000000"/><text fill="#000000" font-family="sans-serif" font-size="12" lengthAdjust="spacing" textLength="142" x="429" y="357.1074">OrderStatusHistoryItem</text><line style="stroke:#A80036;stroke-width:1.5;" x1="401" x2="573" y1="368.9531" y2="368.9531"/><!--MD5=[de626c0cb0f072ae90ffb25031374c19]
class OrderStatus--><rect codeLine="33" fill="#FEFECE" height="142.4375" id="OrderStatus" style="stroke:#A80036;stroke-width:1.5;" width="114" x="500" y="455.9531"/><ellipse cx="519.05" cy="471.9531" fill="#EB937F" rx="11" ry="11" style="stroke:#A80036;stroke-width:1.0;"/><path d="M517.8469,472.8281 L519.3,472.8281 L519.3,472.9375 C519.3,473.3438 519.3313,473.5 519.4094,473.6563 C519.5656,473.9063 519.8469,474.0625 520.1438,474.0625 C520.3938,474.0625 520.6594,473.9219 520.8156,473.7031 C520.9406,473.5469 520.9719,473.3906 520.9719,472.9375 L520.9719,471.0156 C520.9719,470.8594 520.9719,470.8125 520.9563,470.6563 C520.8938,470.1875 520.5813,469.875 520.1281,469.875 C519.8781,469.875 519.6125,470.0156 519.4406,470.2344 C519.3313,470.4063 519.3,470.5625 519.3,471.0156 L519.3,471.1406 L517.8469,471.1406 L517.8469,468.7344 L521.8313,468.7344 L521.8313,469.5938 C521.8313,470 521.8625,470.1719 521.9406,470.3281 C522.1125,470.5781 522.3938,470.7344 522.675,470.7344 C522.9406,470.7344 523.2063,470.5938 523.3781,470.375 C523.4875,470.2031 523.5188,470.0625 523.5188,469.5938 L523.5188,467.0469 L515.8938,467.0469 C515.4563,467.0469 515.3313,467.0625 515.175,467.1563 C514.925,467.3125 514.7688,467.6094 514.7688,467.8906 C514.7688,468.1719 514.9094,468.4219 515.1281,468.5938 C515.2844,468.7031 515.4719,468.7344 515.8938,468.7344 L516.1438,468.7344 L516.1438,475.25 L515.8938,475.25 C515.4875,475.25 515.3313,475.2656 515.175,475.375 C514.925,475.5469 514.7688,475.8125 514.7688,476.1094 C514.7688,476.375 514.9094,476.625 515.1281,476.7813 C515.2688,476.9063 515.5031,476.9531 515.8938,476.9531 L523.8938,476.9531 L523.8938,474.375 C523.8938,473.9375 523.8625,473.7969 523.7844,473.6406 C523.6125,473.3906 523.3313,473.2344 523.05,473.2344 C522.7844,473.2344 522.5188,473.3438 522.3469,473.5938 C522.2375,473.75 522.2063,473.8906 522.2063,474.375 L522.2063,475.25 L517.8469,475.25 L517.8469,472.8281 Z " fill="#000000"/><text fill="#000000" font-family="sans-serif" font-size="12" lengthAdjust="spacing" textLength="73" x="533.95" y="476.1074">OrderStatus</text><line style="stroke:#A80036;stroke-width:1.5;" x1="501" x2="613" y1="487.9531" y2="487.9531"/><text fill="#000000" font-family="sans-serif" font-size="11" lengthAdjust="spacing" textLength="25" x="506" y="502.1636">New</text><text fill="#000000" font-family="sans-serif" font-size="11" lengthAdjust="spacing" textLength="23" x="506" y="514.9683">Paid</text><text fill="#000000" font-family="sans-serif" font-size="11" lengthAdjust="spacing" textLength="51" x="506" y="527.7729">Rejected</text><text fill="#000000" font-family="sans-serif" font-size="11" lengthAdjust="spacing" textLength="98" x="506" y="540.5776">Picking_complete</text><text fill="#000000" font-family="sans-serif" font-size="11" lengthAdjust="spacing" textLength="102" x="506" y="553.3823">Packing_complete</text><text fill="#000000" font-family="sans-serif" font-size="11" lengthAdjust="spacing" textLength="49" x="506" y="566.187">Delivery</text><text fill="#000000" font-family="sans-serif" font-size="11" lengthAdjust="spacing" textLength="57" x="506" y="578.9917">Delivered</text><text fill="#000000" font-family="sans-serif" font-size="11" lengthAdjust="spacing" textLength="54" x="506" y="591.7964">Received</text><!--MD5=[6c7daecf921e44ae8ff04731226b7b22]
class PickUpPoint--><rect codeLine="44" fill="#FEFECE" height="40" id="PickUpPoint" style="stroke:#A80036;stroke-width:1.5;" width="100" x="680" y="336.9531"/><ellipse cx="695" cy="352.9531" fill="#ADD1B2" rx="11" ry="11" style="stroke:#A80036;stroke-width:1.0;"/><path d="M697.3438,348.625 C696.4063,348.1875 695.8125,348.0469 694.9375,348.0469 C692.3125,348.0469 690.3125,350.125 690.3125,352.8438 L690.3125,353.9688 C690.3125,356.5469 692.4219,358.4375 695.3125,358.4375 C696.5313,358.4375 697.6875,358.1406 698.4375,357.5938 C699.0156,357.1875 699.3438,356.7344 699.3438,356.3438 C699.3438,355.8906 698.9531,355.5 698.4844,355.5 C698.2656,355.5 698.0625,355.5781 697.875,355.7656 C697.4219,356.25 697.4219,356.25 697.2344,356.3438 C696.8125,356.6094 696.125,356.7344 695.3594,356.7344 C693.3125,356.7344 692.0156,355.6406 692.0156,353.9375 L692.0156,352.8438 C692.0156,351.0625 693.2656,349.75 695,349.75 C695.5781,349.75 696.1875,349.9063 696.6563,350.1563 C697.1406,350.4375 697.3125,350.6563 697.4063,351.0625 C697.4688,351.4688 697.5,351.5938 697.6406,351.7188 C697.7813,351.8594 698.0156,351.9688 698.2344,351.9688 C698.5,351.9688 698.7656,351.8281 698.9375,351.6094 C699.0469,351.4531 699.0781,351.2656 699.0781,350.8438 L699.0781,349.4219 C699.0781,348.9844 699.0625,348.8594 698.9688,348.7031 C698.8125,348.4375 698.5313,348.2969 698.2344,348.2969 C697.9375,348.2969 697.7344,348.3906 697.5156,348.7031 L697.3438,348.625 Z " fill="#000000"/><text fill="#000000" font-family="sans-serif" font-size="12" lengthAdjust="spacing" textLength="68" x="709" y="357.1074">PickUpPoint</text><line style="stroke:#A80036;stroke-width:1.5;" x1="681" x2="779" y1="368.9531" y2="368.9531"/><!--MD5=[00116170f314697b1299e0aa130488a3]
reverse link Cart to CartItem--><path codeLine="46" d="M173.042,222.6851 C142.186,255.5701 92.5073,308.5181 66.0098,336.7581 " fill="none" id="Cart-backto-CartItem" style="stroke:#A80036;stroke-width:1.0;"/><polygon fill="#A80036" points="181.967,213.1731,174.9447,214.8124,173.757,221.9251,180.7793,220.2858,181.967,213.1731" style="stroke:#A80036;stroke-width:1.0;"/><text fill="#000000" font-family="sans-serif" font-size="13" lengthAdjust="spacing" textLength="7" x="63.0907" y="326.0545">*</text><!--MD5=[7a768b132fe9bfe893aa5ac5e1ba96e6]
reverse link Customer to Cart--><path codeLine="47" d="M279.738,79.0561 C259.846,107.2201 230.721,148.4561 213.728,172.5161 " fill="none" id="Customer-backto-Cart" style="stroke:#A80036;stroke-width:1.0;"/><polygon fill="#A80036" points="287.379,68.2391,280.6503,70.8323,280.456,78.0408,287.1847,75.4476,287.379,68.2391" style="stroke:#A80036;stroke-width:1.0;"/><text fill="#000000" font-family="sans-serif" font-size="13" lengthAdjust="spacing" textLength="8" x="208.464" y="161.7444">1</text><!--MD5=[b05a6c0e609b4fce27e5fb84e8f8e115]
link CartItem to Product--><path codeLine="48" d="M63.4862,377.2251 C88.51,408.3651 137.733,469.6211 164.54,502.9801 " fill="none" id="CartItem-to-Product" style="stroke:#A80036;stroke-width:1.0;"/><polygon fill="#A80036" points="167.694,506.9061,165.1757,497.3847,164.5625,503.0082,158.939,502.395,167.694,506.9061" style="stroke:#A80036;stroke-width:1.0;"/><text fill="#000000" font-family="sans-serif" font-size="13" lengthAdjust="spacing" textLength="24" x="40.4667" y="397.1216">0..1</text><text fill="#000000" font-family="sans-serif" font-size="13" lengthAdjust="spacing" textLength="8" x="154.0229" y="495.9006">1</text><!--MD5=[5d736432011d0fdd89011accb05d35e5]
reverse link Customer to Order--><path codeLine="49" d="M322.42,79.2811 C332.422,93.4411 344.732,110.8701 356.654,127.7501 " fill="none" id="Customer-backto-Order" style="stroke:#A80036;stroke-width:1.0;"/><polygon fill="#A80036" points="314.621,68.2391,314.8153,75.4476,321.544,78.0408,321.3497,70.8323,314.621,68.2391" style="stroke:#A80036;stroke-width:1.0;"/><text fill="#000000" font-family="sans-serif" font-size="13" lengthAdjust="spacing" textLength="7" x="344.3115" y="116.8925">*</text><!--MD5=[ab24261687246172a5e73b125d43b3a9]
reverse link Order to OrderItem--><path codeLine="50" d="M362.608,269.9231 C354.039,286.4491 345.325,303.2541 337.9,317.5741 " fill="none" id="Order-backto-OrderItem" style="stroke:#A80036;stroke-width:1.0;"/><polygon fill="#A80036" points="368.801,257.9801,362.4879,261.4651,363.2768,268.633,369.5898,265.148,368.801,257.9801" style="stroke:#A80036;stroke-width:1.0;"/><text fill="#000000" font-family="sans-serif" font-size="13" lengthAdjust="spacing" textLength="7" x="333.6163" y="306.8534">*</text><!--MD5=[663c18ce459b41abc4dbff87433befbf]
link OrderItem to Product--><path codeLine="51" d="M287.366,396.0751 C260.97,428.9241 223.723,475.2761 201.6,502.806 " fill="none" id="OrderItem-to-Product" style="stroke:#A80036;stroke-width:1.0;"/><polygon fill="#A80036" points="198.449,506.7274,207.2048,502.2179,201.5812,502.8301,200.969,497.2064,198.449,506.7274" style="stroke:#A80036;stroke-width:1.0;"/><text fill="#000000" font-family="sans-serif" font-size="13" lengthAdjust="spacing" textLength="24" x="255.7718" y="416.4215">0..1</text><text fill="#000000" font-family="sans-serif" font-size="13" lengthAdjust="spacing" textLength="8" x="193.669" y="496.0148">1</text><!--MD5=[0650292b188648042cf5d0fa74cfeff0]
link Order to PickUpPoint--><path codeLine="52" d="M473.576,229.3041 C538.532,261.3861 632.209,307.6541 686.521,334.4791 " fill="none" id="Order-to-PickUpPoint" style="stroke:#A80036;stroke-width:1.0;"/><polygon fill="#A80036" points="691.33,336.8541,685.0302,329.2836,686.8465,334.6409,681.4891,336.4572,691.33,336.8541" style="stroke:#A80036;stroke-width:1.0;"/><text fill="#000000" font-family="sans-serif" font-size="13" lengthAdjust="spacing" textLength="7" x="481.3182" y="229.3721">*</text><text fill="#000000" font-family="sans-serif" font-size="13" lengthAdjust="spacing" textLength="8" x="670.7957" y="325.8333">1</text><!--MD5=[393b7afd3b2b3f952440bf34c0301206]
reverse link Order to OrderStatusHistoryItem--><path codeLine="53" d="M441.75,269.7121 C454.804,294.5911 468.205,320.1311 476.999,336.8931 " fill="none" id="Order-backto-OrderStatusHistoryItem" style="stroke:#A80036;stroke-width:1.0;"/><polygon fill="#A80036" points="435.594,257.9801,434.8397,265.1517,441.1695,268.6062,441.9238,261.4347,435.594,257.9801" style="stroke:#A80036;stroke-width:1.0;"/><text fill="#000000" font-family="sans-serif" font-size="13" lengthAdjust="spacing" textLength="7" x="466.0331" y="325.8838">*</text><!--MD5=[d7a12ed011a57068e70e07d9626e1fb6]
link Order to OrderStatus--><path codeLine="54" d="M473.681,220.1951 C516.367,239.9781 566.961,271.7121 592,317.9531 C613.994,358.5711 605.817,409.6601 591.861,451.0401 " fill="none" id="Order-to-OrderStatus" style="stroke:#A80036;stroke-width:1.0;"/><polygon fill="#A80036" points="590.223,455.7801,596.9429,448.5799,591.8559,451.0543,589.3815,445.9673,590.223,455.7801" style="stroke:#A80036;stroke-width:1.0;"/><text fill="#000000" font-family="sans-serif" font-size="13" lengthAdjust="spacing" textLength="8" x="585.2366" y="444.7182">1</text><!--MD5=[ba486c485256ba66cffa4af0b82f6023]
link OrderStatusHistoryItem to OrderStatus--><path codeLine="55" d="M495.03,377.2251 C502.6,395.3941 514.442,423.8141 525.754,450.9631 " fill="none" id="OrderStatusHistoryItem-to-OrderStatus" style="stroke:#A80036;stroke-width:1.0;"/><polygon fill="#A80036" points="527.711,455.6601,527.9424,445.814,525.7882,451.0446,520.5576,448.8904,527.711,455.6601" style="stroke:#A80036;stroke-width:1.0;"/><text fill="#000000" font-family="sans-serif" font-size="13" lengthAdjust="spacing" textLength="8" x="516.4341" y="444.9558">1</text><!--MD5=[23282e2134a434e1e8e0d94dc7744700]
link Order to PaymentType--><path codeLine="56" d="M330.23,246.3261 C296.905,270.6441 258.166,298.9131 228.374,320.6531 " fill="none" id="Order-to-PaymentType" style="stroke:#A80036;stroke-width:1.0;"/><polygon fill="#A80036" points="224.045,323.8121,233.6733,321.7396,228.0844,320.8654,228.9586,315.2765,224.045,323.8121" style="stroke:#A80036;stroke-width:1.0;"/><text fill="#000000" font-family="sans-serif" font-size="13" lengthAdjust="spacing" textLength="8" x="223.9289" y="312.9293">1</text><!--MD5=[c7c29b1e05f3b04b59a7b1f85ba70b59]
@startuml
skinparam shadowing false
hide methods

title Online Clothing Store main classes diagram

class Customer

class Product


class Cart
class CartItem

class Order{
    number
    creation_date
    planned_delivery_date
    tax_amount
    delivery_amount
    total_amount
    customer_comment
}
enum PaymentType {
    Online
    Offline
}
class OrderItem{
    price
    quantity
    discount
}
class OrderStatusHistoryItem
enum OrderStatus {
    New
    Paid
    Rejected
    Picking_complete
    Packing_complete
    Delivery
    Delivered
    Received
}

class PickUpPoint

Cart *- - "*" CartItem
Customer *- - "1" Cart
CartItem "0..1" - -> "1" Product
Customer *- - "*" Order
Order *- - "*" OrderItem
OrderItem "0..1" - -> "1" Product
Order "*" - -> "1" PickUpPoint
Order *- - "*" OrderStatusHistoryItem
Order - -> "1" OrderStatus
OrderStatusHistoryItem - -> "1" OrderStatus
Order - -> "1" PaymentType
@enduml

PlantUML version 1.2021.16beta3(Unknown compile time)
(GPL source distribution)
Java Runtime: Java(TM) SE Runtime Environment
JVM: Java HotSpot(TM) 64-Bit Server VM
Default Encoding: UTF-8
Language: en
Country: US
--></g></svg>